<svg xmlns="http://www.w3.org/2000/svg" version="1.1" xmlns:xlink="http://www.w3.org/1999/xlink" xmlns:svgjs="http://svgjs.com/svgjs" width="1440" height="560" preserveAspectRatio="none" viewBox="0 0 1440 560"><g mask="url(&quot;#SvgjsMask1002&quot;)" fill="none"><rect width="1440" height="560" x="0" y="0" fill="rgba(7, 7, 8, 1)"></rect><path d="M222.84 513.69a54.95 54.95 0 1 0 89.69-63.52z" stroke="#e73635"></path><path d="M141.95 119.3a34.66 34.66 0 1 0 37.47 58.32z" fill="#e73635"></path><path d="M1414.82 404.41L1436.65 404.41L1436.65 456.4L1414.82 456.4z" stroke="#037b0b"></path><path d="M921.65 302.63 a27.42 27.42 0 1 0 54.84 0 a27.42 27.42 0 1 0 -54.84 0z" stroke="#037b0b"></path><path d="M727.3 496.48L736.8 496.48L736.8 505.98L727.3 505.98z" fill="#037b0b"></path><path d="M757.08 231.38 a38.79 38.79 0 1 0 77.58 0 a38.79 38.79 0 1 0 -77.58 0z" fill="#e73635"></path><path d="M494.46 511.28a4.64 4.64 0 1 0-3.78-8.48z" fill="#037b0b"></path><path d="M1070.66 164.24L1113.03 164.24L1113.03 206.61L1070.66 206.61z" stroke="#037b0b"></path><path d="M870.21 210.23a32.78 32.78 0 1 0 49.86-42.58z" fill="rgba(25, 56, 117, 1)"></path><path d="M652.39 109.05a20.09 20.09 0 1 0 27.6-29.2z" stroke="#037b0b"></path><path d="M875.48 313.24a8.19 8.19 0 1 0-4.2 15.83z" fill="#e73635"></path><path d="M618.5 452.26 a36.99 36.99 0 1 0 73.98 0 a36.99 36.99 0 1 0 -73.98 0z" fill="rgba(25, 56, 117, 1)"></path><path d="M286.16 304.22L295.89 304.22L295.89 352.04L286.16 352.04z" fill="rgba(25, 56, 117, 1)"></path><path d="M1288.22 168.64 a38.18 38.18 0 1 0 76.36 0 a38.18 38.18 0 1 0 -76.36 0z" fill="rgba(25, 56, 117, 1)"></path><path d="M1.84 172.12 a40.58 40.58 0 1 0 81.16 0 a40.58 40.58 0 1 0 -81.16 0z" fill="#e73635"></path><path d="M1348.98 75.9a4.14 4.14 0 1 0 7.1 4.26z" stroke="#e73635"></path><path d="M844.75 497.01L865.35 497.01L865.35 549.05L844.75 549.05z" stroke="#037b0b"></path><path d="M404.54 216.87L445.38 216.87L445.38 249.74L404.54 249.74z" stroke="#037b0b"></path><path d="M1424.97 316.81a16.06 16.06 0 1 0 29.5-12.7z" fill="rgba(25, 56, 117, 1)"></path><path d="M1150.5 88.85a13.99 13.99 0 1 0 1.32-27.95z" stroke="#037b0b"></path><path d="M1152.34 115.74a32.11 32.11 0 1 0 26.44-58.52z" stroke="#037b0b"></path><path d="M256.61 199.13a30.69 30.69 0 1 0 50.39-35.05z" fill="#037b0b"></path><path d="M1209.21 171.09L1223.81 171.09L1223.81 185.69L1209.21 185.69z" fill="rgba(25, 56, 117, 1)"></path><path d="M771.97 70.43 a7.05 7.05 0 1 0 14.1 0 a7.05 7.05 0 1 0 -14.1 0z" stroke="#e73635"></path><path d="M1276.85 443.17a47.89 47.89 0 1 0-42.93-85.62z" fill="rgba(25, 56, 117, 1)"></path><path d="M182.58 515.72L196.18 515.72L196.18 535.95L182.58 535.95z" fill="rgba(25, 56, 117, 1)"></path><path d="M749.83 17.41L758.98 17.41L758.98 23.2L749.83 23.2z" fill="#037b0b"></path><path d="M480.69 122.4L506.93 122.4L506.93 152.12L480.69 152.12z" stroke="#e73635"></path><path d="M852.09 449.39 a30.98 30.98 0 1 0 61.96 0 a30.98 30.98 0 1 0 -61.96 0z" stroke="#e73635"></path><path d="M1071.63 510.59L1117.87 510.59L1117.87 542.72L1071.63 542.72z" fill="#037b0b"></path><path d="M978.15 473.62L1010.65 473.62L1010.65 515.87L978.15 515.87z" fill="rgba(25, 56, 117, 1)"></path><path d="M547.34 523.15L576.2 523.15L576.2 555.35L547.34 555.35z" fill="rgba(25, 56, 117, 1)"></path><path d="M440.52 246.45a55.54 55.54 0 1 0-67.2-88.45z" stroke="#e73635"></path></g><defs><mask id="SvgjsMask1002"><rect width="1440" height="560" fill="#ffffff"></rect></mask></defs></svg>